<?xml version="1.0" encoding="UTF-8" standalone="no"?>
<!-- Created with Inkscape (http://www.inkscape.org/) -->

<svg
   width="27.816229mm"
   height="51.469688mm"
   viewBox="0 0 27.816229 51.469688"
   version="1.1"
   id="svg1"
   xml:space="preserve"
   xmlns="http://www.w3.org/2000/svg"
   xmlns:svg="http://www.w3.org/2000/svg"><defs
     id="defs1" /><g
     id="layer1"
     transform="translate(-157.34918,-72.919932)"><path
       style="fill:#000000"
       d="m 162.0686,124.31383 c 0.001,-0.0417 0.64944,-1.43912 1.4409,-3.10547 l 1.43901,-3.02972 2.75022,-0.0269 2.75023,-0.0269 v -9.74399 -9.743993 h -3.54149 -3.54148 l 0.0738,0.22723 c 0.0406,0.12498 0.62938,2.022343 1.30839,4.216373 l 1.23455,3.98913 0.52978,0.031 0.52979,0.031 -0.055,0.52446 c -0.27346,2.60721 -2.87101,4.57315 -5.43659,4.11466 -1.94044,-0.34678 -3.52962,-1.85648 -3.91734,-3.72142 -0.18771,-0.90287 -0.18257,-0.91453 0.41829,-0.94916 l 0.52956,-0.0305 1.51551,-4.88255 c 1.09484,-3.527273 1.56992,-4.921893 1.71154,-5.024293 0.16485,-0.11919 1.66122,-0.14174 9.4062,-0.14174 8.62175,0 9.22401,0.0113 9.42675,0.17673 0.16379,0.13365 0.58098,1.35856 1.71124,5.024293 l 1.49465,4.84756 0.53498,0.031 0.53498,0.031 -0.0644,0.54763 c -0.25448,2.16516 -2.02976,3.88817 -4.26606,4.14043 -1.73604,0.19583 -3.75205,-0.87573 -4.60867,-2.44961 -0.265,-0.4869 -0.57601,-1.5705 -0.57901,-2.01742 -0.001,-0.19659 0.0587,-0.22543 0.52573,-0.25247 l 0.52722,-0.0305 1.23518,-3.98913 c 0.67935,-2.19403 1.26099,-4.091393 1.29254,-4.216373 l 0.0574,-0.22723 h -3.4861 -3.48611 v 9.745613 9.74561 h 2.70386 2.70386 l 1.47783,3.13072 1.47783,3.13071 h -9.18073 c -5.04941,0 -9.17989,-0.0341 -9.17886,-0.0757 z m 2.19485,-17.37042 c -0.41891,-1.52261 -1.95037,-6.26934 -2.00429,-6.21225 -0.04,0.0424 -0.4891,1.43344 -0.99792,3.09124 -0.50883,1.65779 -0.94963,3.07798 -0.97955,3.15596 -0.0456,0.11884 0.2761,0.14179 1.98799,0.14179 1.89634,0 2.03892,-0.0126 1.99377,-0.17674 z m 17.8826,0.0431 c -0.22109,-0.90487 -1.96224,-6.30804 -2.01494,-6.25281 -0.0391,0.041 -0.48499,1.41518 -0.99082,3.05375 -0.50584,1.63858 -0.94444,3.05876 -0.97467,3.15596 -0.0511,0.16429 0.0883,0.17674 1.97905,0.17674 1.63645,0 2.02765,-0.0261 2.00138,-0.13364 z M 169.84301,95.605399 c -3.98897,-0.554061 -7.39948,-3.053083 -8.98985,-6.587229 -0.31726,-0.705036 -0.3755,-0.774744 -0.69775,-0.835197 -1.72359,-0.323348 -3.08454,-2.562573 -2.75739,-4.536851 0.27145,-1.638152 1.45188,-3.03779 2.80932,-3.331033 0.27,-0.05833 0.43743,-0.135045 0.63206,-0.795122 0.36554,-1.239677 3.53059,-6.3236 9.97012,-6.596013 0.53064,-0.02245 2.38505,0.04457 3.37254,0.313582 1.11143,0.302773 2.53241,0.951113 3.44942,1.573842 0.90566,0.615018 2.30333,1.992421 2.90522,2.863081 0.48571,0.702608 1.3242,2.263232 1.3242,2.46465 0,0.05225 0.16791,0.126508 0.37313,0.165009 1.84528,0.346176 3.24635,2.62512 2.86991,4.668126 -0.25672,1.393302 -1.19337,2.644048 -2.28625,3.05295 -0.30823,0.11532 -0.62802,0.209674 -0.71066,0.209674 -0.0892,0 -0.2935,0.314362 -0.50317,0.774442 -1.26982,2.786447 -3.80817,5.088039 -6.67146,6.049216 -1.54518,0.518699 -3.65786,0.745713 -5.08941,0.546873 z m 2.88943,-4.034558 c 0.95017,-0.227125 1.75877,-0.555349 1.93288,-0.784591 0.13497,-0.177702 0.16633,-0.612549 0.0635,-0.88051 -0.0345,-0.08991 -0.19459,-0.231666 -0.35575,-0.315003 -0.27312,-0.141238 -0.35337,-0.130797 -1.18233,0.153829 -1.78516,0.612937 -3.10854,0.614452 -4.77719,0.0055 -0.71987,-0.262719 -0.88279,-0.290322 -1.12396,-0.190427 -0.56102,0.232383 -0.65745,0.928662 -0.18381,1.327201 0.33624,0.28293 1.69773,0.746149 2.58574,0.879745 0.80083,0.120481 2.05609,0.03969 3.04091,-0.195715 z m -5.66667,-5.9736 c 1.05678,-0.265424 1.96932,-1.457319 1.96932,-2.5722 0,-0.454429 -0.0388,-0.562504 -0.2661,-0.7413 -0.53908,-0.424037 -1.17169,-0.13309 -1.31213,0.60347 -0.15925,0.835171 -0.56177,1.207034 -1.30656,1.207034 -0.3968,0 -0.5199,-0.05179 -0.80813,-0.340025 -0.23605,-0.236045 -0.36146,-0.47404 -0.41011,-0.77826 -0.15752,-0.985074 -1.197,-1.254721 -1.55016,-0.402119 -0.32541,0.785594 0.37211,2.208552 1.36896,2.792746 0.70066,0.410615 1.34341,0.474657 2.31491,0.230654 z m 10.52978,-0.177997 c 0.85242,-0.434873 1.53861,-1.553981 1.53861,-2.509313 0,-0.443619 -0.37894,-0.835501 -0.80792,-0.835501 -0.39064,0 -0.80793,0.393996 -0.80793,0.762825 0,0.957813 -1.04451,1.557629 -1.92213,1.103795 -0.31914,-0.165037 -0.60264,-0.615559 -0.60264,-0.957703 0,-0.290294 -0.26013,-0.769878 -0.45898,-0.846184 -0.33289,-0.127741 -0.66823,-0.0556 -0.92223,0.198395 -0.23654,0.236543 -0.25616,0.315823 -0.20845,0.842046 0.0624,0.687928 0.26721,1.130175 0.76762,1.657382 0.88159,0.92881 2.28071,1.167546 3.42405,0.584258 z"
       id="path4" /></g></svg>
